<mxfile modified="2021-06-21T04:37:27.130Z" host="app.diagrams.net" agent="5.0 (Macintosh; Intel Mac OS X 10_15_7) AppleWebKit/537.36 (KHTML, like Gecko) Chrome/91.0.4472.77 Safari/537.36" etag="AC3ZkV24aVaGMGRqGBY3" version="14.8.0" type="github">
  <diagram id="Ht1M8jgEwFfnCIfOTk4-" name="Page-1">
    <mxGraphModel dx="2426" dy="540" grid="1" gridSize="10" guides="1" tooltips="1" connect="1" arrows="1" fold="1" page="1" pageScale="1" pageWidth="1169" pageHeight="827" math="0" shadow="0">
      <root>
        <mxCell id="0" />
        <mxCell id="1" parent="0" />
        <mxCell id="EsHzQRj1Gnb22-uBKqwu-1" value="VPC" style="points=[[0,0],[0.25,0],[0.5,0],[0.75,0],[1,0],[1,0.25],[1,0.5],[1,0.75],[1,1],[0.75,1],[0.5,1],[0.25,1],[0,1],[0,0.75],[0,0.5],[0,0.25]];outlineConnect=0;gradientColor=none;html=1;whiteSpace=wrap;fontSize=12;fontStyle=0;shape=mxgraph.aws4.group;grIcon=mxgraph.aws4.group_vpc;strokeColor=#248814;fillColor=none;verticalAlign=top;align=left;spacingLeft=30;fontColor=#AAB7B8;dashed=0;" vertex="1" parent="1">
          <mxGeometry x="120" y="100" width="780" height="520" as="geometry" />
        </mxCell>
        <mxCell id="EsHzQRj1Gnb22-uBKqwu-2" value="" style="fillColor=none;strokeColor=#147EBA;dashed=1;verticalAlign=top;fontStyle=0;fontColor=#147EBA;" vertex="1" parent="1">
          <mxGeometry x="160" y="120" width="730" height="240" as="geometry" />
        </mxCell>
        <mxCell id="EsHzQRj1Gnb22-uBKqwu-3" value="" style="fillColor=none;strokeColor=#147EBA;dashed=1;verticalAlign=top;fontStyle=0;fontColor=#147EBA;" vertex="1" parent="1">
          <mxGeometry x="160" y="370" width="730" height="240" as="geometry" />
        </mxCell>
        <mxCell id="EsHzQRj1Gnb22-uBKqwu-4" value="&lt;font style=&quot;font-size: 14px&quot;&gt;Public subnet1&lt;br&gt;10.0.0.0/24&lt;/font&gt;" style="points=[[0,0],[0.25,0],[0.5,0],[0.75,0],[1,0],[1,0.25],[1,0.5],[1,0.75],[1,1],[0.75,1],[0.5,1],[0.25,1],[0,1],[0,0.75],[0,0.5],[0,0.25]];outlineConnect=0;gradientColor=none;html=1;whiteSpace=wrap;fontSize=12;fontStyle=0;shape=mxgraph.aws4.group;grIcon=mxgraph.aws4.group_security_group;grStroke=0;strokeColor=#248814;fillColor=#E9F3E6;verticalAlign=top;align=left;spacingLeft=30;fontColor=#248814;dashed=0;" vertex="1" parent="1">
          <mxGeometry x="170" y="150" width="320" height="200" as="geometry" />
        </mxCell>
        <mxCell id="EsHzQRj1Gnb22-uBKqwu-5" value="&lt;font style=&quot;font-size: 14px&quot;&gt;Public subnet2&lt;br&gt;10.0.1.0/24&lt;/font&gt;" style="points=[[0,0],[0.25,0],[0.5,0],[0.75,0],[1,0],[1,0.25],[1,0.5],[1,0.75],[1,1],[0.75,1],[0.5,1],[0.25,1],[0,1],[0,0.75],[0,0.5],[0,0.25]];outlineConnect=0;gradientColor=none;html=1;whiteSpace=wrap;fontSize=12;fontStyle=0;shape=mxgraph.aws4.group;grIcon=mxgraph.aws4.group_security_group;grStroke=0;strokeColor=#248814;fillColor=#E9F3E6;verticalAlign=top;align=left;spacingLeft=30;fontColor=#248814;dashed=0;" vertex="1" parent="1">
          <mxGeometry x="170" y="400" width="320" height="200" as="geometry" />
        </mxCell>
        <mxCell id="EsHzQRj1Gnb22-uBKqwu-6" value="&lt;font style=&quot;font-size: 14px&quot;&gt;Private subnet1&lt;br&gt;10.0.2.0/24&lt;/font&gt;" style="points=[[0,0],[0.25,0],[0.5,0],[0.75,0],[1,0],[1,0.25],[1,0.5],[1,0.75],[1,1],[0.75,1],[0.5,1],[0.25,1],[0,1],[0,0.75],[0,0.5],[0,0.25]];outlineConnect=0;gradientColor=none;html=1;whiteSpace=wrap;fontSize=12;fontStyle=0;shape=mxgraph.aws4.group;grIcon=mxgraph.aws4.group_security_group;grStroke=0;strokeColor=#147EBA;fillColor=#E6F2F8;verticalAlign=top;align=left;spacingLeft=30;fontColor=#147EBA;dashed=0;" vertex="1" parent="1">
          <mxGeometry x="560" y="150" width="320" height="200" as="geometry" />
        </mxCell>
        <mxCell id="EsHzQRj1Gnb22-uBKqwu-8" value="Security group" style="fillColor=none;strokeColor=#DD3522;verticalAlign=top;fontStyle=0;fontColor=#DD3522;" vertex="1" parent="1">
          <mxGeometry x="320" y="190" width="160" height="150" as="geometry" />
        </mxCell>
        <mxCell id="EsHzQRj1Gnb22-uBKqwu-10" value="Security group" style="fillColor=none;strokeColor=#DD3522;verticalAlign=top;fontStyle=0;fontColor=#DD3522;" vertex="1" parent="1">
          <mxGeometry x="710" y="190" width="159" height="150" as="geometry" />
        </mxCell>
        <mxCell id="EsHzQRj1Gnb22-uBKqwu-13" value="" style="points=[[0,0,0],[0.25,0,0],[0.5,0,0],[0.75,0,0],[1,0,0],[0,1,0],[0.25,1,0],[0.5,1,0],[0.75,1,0],[1,1,0],[0,0.25,0],[0,0.5,0],[0,0.75,0],[1,0.25,0],[1,0.5,0],[1,0.75,0]];outlineConnect=0;fontColor=#232F3E;gradientColor=#F78E04;gradientDirection=north;fillColor=#D05C17;strokeColor=#ffffff;dashed=0;verticalLabelPosition=bottom;verticalAlign=top;align=center;html=1;fontSize=12;fontStyle=0;aspect=fixed;shape=mxgraph.aws4.resourceIcon;resIcon=mxgraph.aws4.ec2;" vertex="1" parent="1">
          <mxGeometry x="362" y="230" width="78" height="78" as="geometry" />
        </mxCell>
        <mxCell id="EsHzQRj1Gnb22-uBKqwu-14" value="&lt;font style=&quot;font-size: 24px&quot;&gt;10.0.0.0/21&lt;/font&gt;" style="text;html=1;strokeColor=none;fillColor=none;align=center;verticalAlign=middle;whiteSpace=wrap;rounded=0;" vertex="1" parent="1">
          <mxGeometry x="120" y="60" width="130" height="40" as="geometry" />
        </mxCell>
        <mxCell id="EsHzQRj1Gnb22-uBKqwu-15" value="&lt;font style=&quot;font-size: 18px&quot;&gt;EC2&lt;/font&gt;" style="text;html=1;strokeColor=none;fillColor=none;align=center;verticalAlign=middle;whiteSpace=wrap;rounded=0;" vertex="1" parent="1">
          <mxGeometry x="362" y="320" width="80" height="20" as="geometry" />
        </mxCell>
        <mxCell id="EsHzQRj1Gnb22-uBKqwu-16" value="" style="dashed=0;outlineConnect=0;html=1;align=center;labelPosition=center;verticalLabelPosition=bottom;verticalAlign=top;shape=mxgraph.webicons.wordpress;fillColor=#35E2EE;gradientColor=#0E4D99" vertex="1" parent="1">
          <mxGeometry x="442" y="492" width="40" height="46" as="geometry" />
        </mxCell>
        <mxCell id="EsHzQRj1Gnb22-uBKqwu-19" value="" style="points=[[0,0,0],[0.25,0,0],[0.5,0,0],[0.75,0,0],[1,0,0],[0,1,0],[0.25,1,0],[0.5,1,0],[0.75,1,0],[1,1,0],[0,0.25,0],[0,0.5,0],[0,0.75,0],[1,0.25,0],[1,0.5,0],[1,0.75,0]];outlineConnect=0;fontColor=#232F3E;gradientColor=#4D72F3;gradientDirection=north;fillColor=#3334B9;strokeColor=#ffffff;dashed=0;verticalLabelPosition=bottom;verticalAlign=top;align=center;html=1;fontSize=12;fontStyle=0;aspect=fixed;shape=mxgraph.aws4.resourceIcon;resIcon=mxgraph.aws4.rds;" vertex="1" parent="1">
          <mxGeometry x="750.5" y="506" width="78" height="78" as="geometry" />
        </mxCell>
        <mxCell id="EsHzQRj1Gnb22-uBKqwu-21" value="&lt;font style=&quot;font-size: 18px&quot;&gt;RDS Master&lt;/font&gt;" style="text;html=1;strokeColor=none;fillColor=none;align=center;verticalAlign=middle;whiteSpace=wrap;rounded=0;" vertex="1" parent="1">
          <mxGeometry x="719.5" y="320" width="140" height="20" as="geometry" />
        </mxCell>
        <mxCell id="EsHzQRj1Gnb22-uBKqwu-26" value="&lt;font style=&quot;font-size: 18px&quot;&gt;MySQL&lt;/font&gt;" style="text;html=1;strokeColor=none;fillColor=none;align=center;verticalAlign=middle;whiteSpace=wrap;rounded=0;" vertex="1" parent="1">
          <mxGeometry x="482" y="233" width="80" height="20" as="geometry" />
        </mxCell>
        <mxCell id="EsHzQRj1Gnb22-uBKqwu-17" value="" style="dashed=0;outlineConnect=0;html=1;align=center;labelPosition=center;verticalLabelPosition=bottom;verticalAlign=top;shape=mxgraph.webicons.wordpress;fillColor=#35E2EE;gradientColor=#0E4D99" vertex="1" parent="1">
          <mxGeometry x="440" y="280" width="40" height="46" as="geometry" />
        </mxCell>
        <mxCell id="EsHzQRj1Gnb22-uBKqwu-28" value="" style="endArrow=classic;html=1;" edge="1" parent="1">
          <mxGeometry width="50" height="50" relative="1" as="geometry">
            <mxPoint x="439.5" y="270" as="sourcePoint" />
            <mxPoint x="710" y="270" as="targetPoint" />
          </mxGeometry>
        </mxCell>
        <mxCell id="EsHzQRj1Gnb22-uBKqwu-29" value="" style="points=[[0,0,0],[0.25,0,0],[0.5,0,0],[0.75,0,0],[1,0,0],[0,1,0],[0.25,1,0],[0.5,1,0],[0.75,1,0],[1,1,0],[0,0.25,0],[0,0.5,0],[0,0.75,0],[1,0.25,0],[1,0.5,0],[1,0.75,0]];outlineConnect=0;fontColor=#232F3E;gradientColor=#F78E04;gradientDirection=north;fillColor=#D05C17;strokeColor=#ffffff;dashed=0;verticalLabelPosition=bottom;verticalAlign=top;align=center;html=1;fontSize=12;fontStyle=0;aspect=fixed;shape=mxgraph.aws4.resourceIcon;resIcon=mxgraph.aws4.ec2;" vertex="1" parent="1">
          <mxGeometry x="364" y="476" width="78" height="78" as="geometry" />
        </mxCell>
        <mxCell id="EsHzQRj1Gnb22-uBKqwu-30" value="Security group" style="fillColor=none;strokeColor=#DD3522;verticalAlign=top;fontStyle=0;fontColor=#DD3522;" vertex="1" parent="1">
          <mxGeometry x="320" y="440" width="160" height="150" as="geometry" />
        </mxCell>
        <mxCell id="EsHzQRj1Gnb22-uBKqwu-31" value="&lt;font style=&quot;font-size: 18px&quot;&gt;EC2&lt;/font&gt;" style="text;html=1;strokeColor=none;fillColor=none;align=center;verticalAlign=middle;whiteSpace=wrap;rounded=0;" vertex="1" parent="1">
          <mxGeometry x="360" y="570" width="80" height="20" as="geometry" />
        </mxCell>
        <mxCell id="EsHzQRj1Gnb22-uBKqwu-33" value="&lt;font style=&quot;font-size: 18px&quot;&gt;AZ 1a&lt;/font&gt;" style="text;html=1;strokeColor=none;fillColor=none;align=center;verticalAlign=middle;whiteSpace=wrap;rounded=0;" vertex="1" parent="1">
          <mxGeometry x="160" y="120" width="60" height="20" as="geometry" />
        </mxCell>
        <mxCell id="EsHzQRj1Gnb22-uBKqwu-34" value="&lt;font style=&quot;font-size: 18px&quot;&gt;AZ 1c&lt;/font&gt;" style="text;html=1;strokeColor=none;fillColor=none;align=center;verticalAlign=middle;whiteSpace=wrap;rounded=0;" vertex="1" parent="1">
          <mxGeometry x="160" y="370" width="60" height="20" as="geometry" />
        </mxCell>
        <mxCell id="EsHzQRj1Gnb22-uBKqwu-35" value="&lt;font style=&quot;font-size: 14px&quot;&gt;Private subnet1&lt;br&gt;10.0.3.0/24&lt;/font&gt;" style="points=[[0,0],[0.25,0],[0.5,0],[0.75,0],[1,0],[1,0.25],[1,0.5],[1,0.75],[1,1],[0.75,1],[0.5,1],[0.25,1],[0,1],[0,0.75],[0,0.5],[0,0.25]];outlineConnect=0;gradientColor=none;html=1;whiteSpace=wrap;fontSize=12;fontStyle=0;shape=mxgraph.aws4.group;grIcon=mxgraph.aws4.group_security_group;grStroke=0;strokeColor=#147EBA;fillColor=#E6F2F8;verticalAlign=top;align=left;spacingLeft=30;fontColor=#147EBA;dashed=0;" vertex="1" parent="1">
          <mxGeometry x="560" y="400" width="320" height="200" as="geometry" />
        </mxCell>
        <mxCell id="EsHzQRj1Gnb22-uBKqwu-36" value="Security group" style="fillColor=none;strokeColor=#DD3522;verticalAlign=top;fontStyle=0;fontColor=#DD3522;" vertex="1" parent="1">
          <mxGeometry x="710" y="440" width="159" height="150" as="geometry" />
        </mxCell>
        <mxCell id="EsHzQRj1Gnb22-uBKqwu-37" value="" style="points=[[0,0,0],[0.25,0,0],[0.5,0,0],[0.75,0,0],[1,0,0],[0,1,0],[0.25,1,0],[0.5,1,0],[0.75,1,0],[1,1,0],[0,0.25,0],[0,0.5,0],[0,0.75,0],[1,0.25,0],[1,0.5,0],[1,0.75,0]];outlineConnect=0;fontColor=#232F3E;gradientColor=#4D72F3;gradientDirection=north;fillColor=#3334B9;strokeColor=#ffffff;dashed=0;verticalLabelPosition=bottom;verticalAlign=top;align=center;html=1;fontSize=12;fontStyle=0;aspect=fixed;shape=mxgraph.aws4.resourceIcon;resIcon=mxgraph.aws4.rds;" vertex="1" parent="1">
          <mxGeometry x="750.5" y="226" width="78" height="78" as="geometry" />
        </mxCell>
        <mxCell id="EsHzQRj1Gnb22-uBKqwu-38" value="" style="points=[[0,0,0],[0.25,0,0],[0.5,0,0],[0.75,0,0],[1,0,0],[0,1,0],[0.25,1,0],[0.5,1,0],[0.75,1,0],[1,1,0],[0,0.25,0],[0,0.5,0],[0,0.75,0],[1,0.25,0],[1,0.5,0],[1,0.75,0]];outlineConnect=0;fontColor=#232F3E;gradientColor=#4D72F3;gradientDirection=north;fillColor=#3334B9;strokeColor=#ffffff;dashed=0;verticalLabelPosition=bottom;verticalAlign=top;align=center;html=1;fontSize=12;fontStyle=0;aspect=fixed;shape=mxgraph.aws4.resourceIcon;resIcon=mxgraph.aws4.rds;" vertex="1" parent="1">
          <mxGeometry x="750.5" y="476" width="78" height="78" as="geometry" />
        </mxCell>
        <mxCell id="EsHzQRj1Gnb22-uBKqwu-39" value="&lt;font style=&quot;font-size: 18px&quot;&gt;RDS Slave&lt;/font&gt;" style="text;html=1;strokeColor=none;fillColor=none;align=center;verticalAlign=middle;whiteSpace=wrap;rounded=0;" vertex="1" parent="1">
          <mxGeometry x="719.5" y="570" width="140" height="20" as="geometry" />
        </mxCell>
        <mxCell id="EsHzQRj1Gnb22-uBKqwu-41" value="" style="endArrow=none;html=1;" edge="1" parent="1">
          <mxGeometry width="50" height="50" relative="1" as="geometry">
            <mxPoint x="789" y="440" as="sourcePoint" />
            <mxPoint x="789" y="340" as="targetPoint" />
          </mxGeometry>
        </mxCell>
        <mxCell id="EsHzQRj1Gnb22-uBKqwu-42" value="" style="endArrow=classic;html=1;entryX=-0.013;entryY=0.587;entryDx=0;entryDy=0;entryPerimeter=0;exitX=1;exitY=0.5;exitDx=0;exitDy=0;" edge="1" parent="1" source="EsHzQRj1Gnb22-uBKqwu-30" target="EsHzQRj1Gnb22-uBKqwu-10">
          <mxGeometry width="50" height="50" relative="1" as="geometry">
            <mxPoint x="570" y="430" as="sourcePoint" />
            <mxPoint x="610" y="390" as="targetPoint" />
          </mxGeometry>
        </mxCell>
        <mxCell id="EsHzQRj1Gnb22-uBKqwu-43" value="" style="outlineConnect=0;fontColor=#232F3E;gradientColor=none;fillColor=#5A30B5;strokeColor=none;dashed=0;verticalLabelPosition=bottom;verticalAlign=top;align=center;html=1;fontSize=12;fontStyle=0;aspect=fixed;pointerEvents=1;shape=mxgraph.aws4.internet_gateway;" vertex="1" parent="1">
          <mxGeometry x="90" y="329" width="60" height="60" as="geometry" />
        </mxCell>
        <mxCell id="EsHzQRj1Gnb22-uBKqwu-44" value="" style="points=[[0,0,0],[0.25,0,0],[0.5,0,0],[0.75,0,0],[1,0,0],[0,1,0],[0.25,1,0],[0.5,1,0],[0.75,1,0],[1,1,0],[0,0.25,0],[0,0.5,0],[0,0.75,0],[1,0.25,0],[1,0.5,0],[1,0.75,0]];outlineConnect=0;fontColor=#232F3E;gradientColor=#945DF2;gradientDirection=north;fillColor=#5A30B5;strokeColor=#ffffff;dashed=0;verticalLabelPosition=bottom;verticalAlign=top;align=center;html=1;fontSize=12;fontStyle=0;aspect=fixed;shape=mxgraph.aws4.resourceIcon;resIcon=mxgraph.aws4.elastic_load_balancing;" vertex="1" parent="1">
          <mxGeometry x="230" y="326" width="60" height="60" as="geometry" />
        </mxCell>
        <mxCell id="EsHzQRj1Gnb22-uBKqwu-45" value="" style="outlineConnect=0;fontColor=#232F3E;gradientColor=none;fillColor=#232F3E;strokeColor=none;dashed=0;verticalLabelPosition=bottom;verticalAlign=top;align=center;html=1;fontSize=12;fontStyle=0;aspect=fixed;pointerEvents=1;shape=mxgraph.aws4.client;" vertex="1" parent="1">
          <mxGeometry x="-120" y="320" width="78" height="76" as="geometry" />
        </mxCell>
        <mxCell id="EsHzQRj1Gnb22-uBKqwu-46" value="&lt;font style=&quot;font-size: 14px&quot;&gt;クライアント&lt;/font&gt;" style="text;html=1;strokeColor=none;fillColor=none;align=center;verticalAlign=middle;whiteSpace=wrap;rounded=0;" vertex="1" parent="1">
          <mxGeometry x="-130" y="404" width="100" height="20" as="geometry" />
        </mxCell>
        <mxCell id="EsHzQRj1Gnb22-uBKqwu-47" value="" style="endArrow=classic;html=1;" edge="1" parent="1" target="EsHzQRj1Gnb22-uBKqwu-43">
          <mxGeometry width="50" height="50" relative="1" as="geometry">
            <mxPoint x="-40" y="360" as="sourcePoint" />
            <mxPoint x="10" y="310" as="targetPoint" />
          </mxGeometry>
        </mxCell>
        <mxCell id="EsHzQRj1Gnb22-uBKqwu-48" value="&lt;font style=&quot;font-size: 24px&quot;&gt;http&lt;/font&gt;" style="text;html=1;strokeColor=none;fillColor=none;align=center;verticalAlign=middle;whiteSpace=wrap;rounded=0;" vertex="1" parent="1">
          <mxGeometry x="-10" y="366" width="70" height="20" as="geometry" />
        </mxCell>
        <mxCell id="EsHzQRj1Gnb22-uBKqwu-50" value="" style="endArrow=classic;html=1;" edge="1" parent="1">
          <mxGeometry width="50" height="50" relative="1" as="geometry">
            <mxPoint x="150" y="359.5" as="sourcePoint" />
            <mxPoint x="232" y="359.5" as="targetPoint" />
          </mxGeometry>
        </mxCell>
        <mxCell id="EsHzQRj1Gnb22-uBKqwu-52" value="" style="endArrow=classic;html=1;" edge="1" parent="1">
          <mxGeometry width="50" height="50" relative="1" as="geometry">
            <mxPoint x="292" y="350" as="sourcePoint" />
            <mxPoint x="362" y="290" as="targetPoint" />
          </mxGeometry>
        </mxCell>
        <mxCell id="EsHzQRj1Gnb22-uBKqwu-53" value="" style="endArrow=classic;html=1;" edge="1" parent="1">
          <mxGeometry width="50" height="50" relative="1" as="geometry">
            <mxPoint x="290" y="360" as="sourcePoint" />
            <mxPoint x="360" y="494" as="targetPoint" />
          </mxGeometry>
        </mxCell>
      </root>
    </mxGraphModel>
  </diagram>
</mxfile>
